<?xml version="1.0" encoding="iso-8859-1"?>
<!-- Generator: Adobe Illustrator 19.0.0, SVG Export Plug-In . SVG Version: 6.00 Build 0)  -->
<svg fill="#fff" version="1.1" id="Layer_1" xmlns="http://www.w3.org/2000/svg" xmlns:xlink="http://www.w3.org/1999/xlink" x="0px" y="0px"
	 viewBox="0 0 512.001 512.001" style="enable-background:new 0 0 512.001 512.001;" xml:space="preserve">
<g>
	<g>
		<path d="M378.203,165.803c-0.018,0-0.037,0-0.056,0c-4.185,0-7.592,3.377-7.622,7.568c-0.031,4.324-5.691,4.758-7.363,4.787
			H148.479c-1.704-0.032-7.276-0.486-7.434-5.001c-0.148-4.209-3.712-7.483-7.887-7.35c-4.208,0.148-7.499,3.678-7.351,7.887
			c0.508,14.462,13.797,19.712,22.605,19.712h214.75c9.031-0.001,22.504-5.307,22.61-19.925
			C385.802,169.272,382.413,165.835,378.203,165.803z"/>
	</g>
</g>
<g>
	<g>
		<path d="M17.001,311.687c-0.827-4.563-1.425-9.198-1.777-13.778c-0.322-4.198-4.002-7.368-8.184-7.016
			c-4.198,0.321-7.34,3.987-7.017,8.184c0.391,5.097,0.934,10.279,1.976,15.33c1.588,7.697,8.402,6.225,8.861,6.141
			C15.003,319.797,17.752,315.83,17.001,311.687z"/>
	</g>
</g>
<g>
	<g>
		<g>
			<path d="M495.6,222.143c-14.948-27.17-38.205-45.864-65.853-53.088c4.439-45.358,5.097-77.031,5.105-77.445
				c0.001-0.049,0.001-0.097,0.001-0.145c0-38.978-31.711-70.689-70.689-70.689c-35.179,0-64.569,25.707-69.845,59.736h-77.064
				c-5.275-34.029-34.666-59.736-69.846-59.736c-38.978,0-70.689,31.711-70.689,70.689c0,0.073,0.001,0.147,0.003,0.221
				c0.012,0.425,0.984,32.218,5.455,77.275c-20.86,5.376-39.386,17.355-53.8,34.848c-14.893,18.074-24.449,40.811-27.635,65.75
				c-0.534,4.176,2.394,8.272,6.596,8.528c4.209,0.256,8.036-2.747,8.528-6.596c5.531-43.306,31.908-76.825,67.923-87.154
				c1.247,11.294,2.705,23.214,4.408,35.529c12.021,86.889,30.332,154.299,54.487,200.71H38.758l-0.22-0.013
				c0,0-8.714,0.42-8.714-7.957c0-4.394,3.576-7.969,7.97-7.969c3.145,0,6.004,1.865,7.284,4.752
				c1.222,2.757,3.954,4.533,6.969,4.533h23.36c3.524,0,6.589-2.415,7.412-5.841c0.824-3.425-0.808-6.97-3.947-8.573
				c-24.524-12.515-44.032-34.919-54.93-63.084c-1.52-3.927-5.934-5.88-9.86-4.359c-3.927,1.519-5.878,5.934-4.358,9.859
				c7.076,18.29,17.437,34.447,30.295,47.573c-0.734-0.071-1.476-0.107-2.223-0.107c-12.801,0-23.216,10.414-23.216,23.216
				c0,24.385,23.89,23.216,24.029,23.216h89.61c-3.538,2.194-7.569,4.712-12.17,7.604c-2.877,1.807-4.209,5.301-3.268,8.566
				c0.94,3.264,3.927,5.512,7.325,5.512h30.652l-4.717,16.508c-0.813,2.847,0.095,5.908,2.33,7.849
				c2.234,1.941,5.391,2.415,8.096,1.212l25.643-11.397l3.879,13.964c0.814,2.931,3.293,5.098,6.307,5.512
				c0.349,0.049,0.696,0.071,1.041,0.071c2.641,0,5.126-1.374,6.519-3.675l25.359-41.898c1.642-2.657,3.595-6.484,3.794-9.828
				h53.557c0.182,3.442,2.131,7.22,3.821,9.867l25.335,41.859c1.574,2.602,4.542,4.022,7.56,3.604
				c3.014-0.414,5.492-2.581,6.307-5.511l3.879-13.965l25.643,11.397c1.008,0.448,2.116,0.659,3.14,0.657
				c4.199-0.013,7.6-3.42,7.6-7.623c0-0.928-0.166-1.817-0.47-2.641l-4.561-15.962h30.651c3.397,0,6.384-2.248,7.326-5.512
				c0.941-3.265-0.392-6.757-3.268-8.566c-4.601-2.892-8.63-5.409-12.169-7.604h89.609c0.138,0,24.029,0.534,24.029-23.216
				c0-12.801-10.415-23.216-23.217-23.216c-0.788,0-1.57,0.04-2.344,0.119c18.31-18.724,31.563-43.486,37.331-70.968
				C515.866,284.717,511.19,250.482,495.6,222.143z M224.735,420.575c-5.394-16.405-14.245-46.071-19.282-77.688
				c-7.213-45.275-3.999-79.09,9.293-97.788c8.913-12.537,22.341-18.631,41.053-18.631c19.675,0,33.679,6.324,42.809,19.333
				c29.802,42.459-0.242,141.606-11.584,174.774H224.735z M350.711,442.258v-0.001c-2.393,0-4.645,1.122-6.086,3.032
				c-1.44,1.91-1.901,4.385-1.244,6.685l3.011,10.539l-18.81-8.361c-2.027-0.903-4.343-0.874-6.35,0.071
				c-2.005,0.946-3.499,2.718-4.092,4.854l-1.52,5.469c0,0-17.295-28.629-17.618-29.322c0.207-0.617,48.949-147.09,13.086-198.184
				c-12.026-17.132-30.627-25.82-55.289-25.82c-23.673,0-41.666,8.426-53.48,25.044c-36.087,50.763,11.184,198.365,11.312,198.734
				c-0.329,0.746-17.68,29.548-17.68,29.548l-1.519-5.468c-0.594-2.138-2.088-3.909-4.092-4.854
				c-2.005-0.947-4.324-0.974-6.349-0.071l-18.811,8.361l3.012-10.539c0.657-2.3,0.196-4.775-1.244-6.685s-3.694-3.032-6.086-3.032
				h-13.889c5.022-3.028,8.949-5.322,10.672-6.194c3.927-2.481,5.844-3.976,5.844-7.413c0-1.398-0.388-2.748-1.082-3.917
				C99.788,318.712,92.157,97.349,91.966,91.352c0.061-30.52,24.909-55.33,55.443-55.33c29.513,0,53.833,23.064,55.365,52.508
				c0.21,4.051,3.557,7.227,7.613,7.227h90.801c4.057,0,7.402-3.176,7.613-7.227c1.533-29.444,25.852-52.508,55.365-52.508
				c30.545,0,55.4,24.832,55.443,55.367c-0.106,4.881-5.3,216.227-70.541,333.515c-0.632,1.129-0.983,2.417-0.983,3.746
				c0,3.473,2.347,5.478,5.719,7.359c0.012,0.007,0.026,0.007,0.04,0.01c1.674,0.836,5.65,3.158,10.758,6.238H350.711z
				 M493.845,315.409c-7.788,37.097-30.645,68.537-61.144,84.099c-3.139,1.602-4.77,5.146-3.947,8.573
				c0.823,3.426,3.888,5.841,7.412,5.841h23.36c3.016,0,5.747-1.778,6.969-4.534c1.28-2.886,4.138-4.751,7.284-4.751
				c4.394,0,7.97,3.575,7.97,7.969c0,8.504-8.93,7.97-8.93,7.97H368.595c25.253-50.271,43.977-119.12,55.708-204.934
				c1.477-10.804,2.749-21.259,3.846-31.212c22.57,6.582,41.614,22.379,54.093,45.062
				C496.076,254.638,500.196,285.151,493.845,315.409z"/>
			<path d="M157.643,436.063C157.576,436.105,157.72,436.043,157.643,436.063L157.643,436.063z"/>
		</g>
	</g>
</g>
<g>
	<g>
		<path d="M460.712,340.9c-3.541-2.277-8.258-1.249-10.534,2.292c-2.7,4.201-5.716,8.159-8.965,11.76
			c-2.821,3.127-2.573,7.948,0.554,10.767c1.458,1.315,3.283,1.963,5.104,1.963c2.083,0,4.158-0.849,5.664-2.518
			c3.8-4.215,7.323-8.834,10.47-13.73C465.28,347.894,464.254,343.176,460.712,340.9z"/>
	</g>
</g>
<g>
	<g>
		<path d="M470.136,239.023c-1.926-3.74-6.521-5.214-10.267-3.287c-3.744,1.928-5.215,6.525-3.288,10.268
			c9.471,18.395,12.107,40.817,7.421,63.139c-0.865,4.121,1.774,8.162,5.894,9.027c0.529,0.111,1.055,0.165,1.574,0.165
			c3.53,0,6.698-2.466,7.453-6.06C484.326,286.536,481.206,260.521,470.136,239.023z"/>
	</g>
</g>
<g>
	<g>
		<path d="M364.016,48.924c-26.01,0-47.095,21.085-47.095,47.095c0,26.01,21.085,47.095,47.095,47.095s47.095-21.085,47.095-47.095
			C411.112,70.009,390.027,48.924,364.016,48.924z M364.016,127.868c-14.934,0-27.494-10.334-30.92-24.226h61.839
			C391.511,117.533,378.95,127.868,364.016,127.868z M333.096,88.395c3.427-13.891,15.987-24.225,30.92-24.225
			s27.494,10.334,30.919,24.225H333.096z"/>
	</g>
</g>
<g>
	<g>
		<path d="M194.546,94.355c-0.878-25.238-21.601-45.431-47.053-45.431c-25.3,0-45.934,19.952-47.042,44.978
			c-0.194,0.673-0.304,1.381-0.304,2.116c0,0.735,0.11,1.443,0.304,2.116c1.107,25.028,21.742,44.979,47.042,44.979
			c25.452,0,46.176-20.194,47.053-45.432c0.119-0.536,0.188-1.092,0.188-1.663S194.666,94.892,194.546,94.355z M147.493,127.868
			c-14.934,0-27.494-10.334-30.92-24.226h61.839C174.988,117.533,162.427,127.868,147.493,127.868z M116.573,88.395
			c3.427-13.891,15.987-24.225,30.92-24.225s27.494,10.334,30.919,24.225H116.573z"/>
	</g>
</g>
<g>
</g>
<g>
</g>
<g>
</g>
<g>
</g>
<g>
</g>
<g>
</g>
<g>
</g>
<g>
</g>
<g>
</g>
<g>
</g>
<g>
</g>
<g>
</g>
<g>
</g>
<g>
</g>
<g>
</g>
</svg>
